<svg width="23.375000" height="27.750122" viewBox="0 0 23.375 27.7501" fill="none" xmlns="http://www.w3.org/2000/svg" xmlns:xlink="http://www.w3.org/1999/xlink">
	<desc>
			Created with Pixso.
	</desc>
	<defs/>
	<path id="path" d="M16.792 5.85413C16.792 3.03516 14.5068 0.75 11.6875 0.75C8.86865 0.75 6.5835 3.03516 6.5835 5.85413C6.5835 8.6731 8.86865 10.9584 11.6875 10.9584C14.5068 10.9584 16.792 8.6731 16.792 5.85413Z" stroke="#585858" stroke-opacity="1.000000" stroke-width="1.500000" stroke-linejoin="round"/>
	<path id="path" d="M0.75 27.0001L22.625 27.0001L22.625 26.1251C22.625 22.8582 22.625 21.2246 21.9893 19.9768C21.4302 18.8792 20.5376 17.9868 19.4399 17.4275C18.1919 16.7917 16.5586 16.7917 13.2915 16.7917L10.0835 16.7917C6.81641 16.7917 5.18311 16.7917 3.93506 17.4275C2.8374 17.9868 1.94482 18.8792 1.38574 19.9768C0.75 21.2246 0.75 22.8582 0.75 26.1251L0.75 27.0001Z" stroke="#585858" stroke-opacity="1.000000" stroke-width="1.500000" stroke-linejoin="round"/>
</svg>
